<svg width="14" height="16" viewBox="0 0 14 16" fill="none" xmlns="http://www.w3.org/2000/svg">
<path fill-rule="evenodd" clip-rule="evenodd" d="M2.625 1.8125C2.00368 1.8125 1.5 2.31618 1.5 2.9375L1.5 13.0625C1.5 13.6838 2.00368 14.1875 2.625 14.1875H7.125C7.74632 14.1875 8.25 13.6838 8.25 13.0625V10.25C8.25 9.93934 8.50184 9.6875 8.8125 9.6875C9.12316 9.6875 9.375 9.93934 9.375 10.25V13.0625C9.375 14.3051 8.36764 15.3125 7.125 15.3125H2.625C1.38236 15.3125 0.375 14.3051 0.375 13.0625L0.375 2.9375C0.375001 1.69486 1.38236 0.6875 2.625 0.6875L7.125 0.6875C8.36764 0.6875 9.375 1.69486 9.375 2.9375V5.75C9.375 6.06066 9.12316 6.3125 8.8125 6.3125C8.50184 6.3125 8.25 6.06066 8.25 5.75V2.9375C8.25 2.31618 7.74632 1.8125 7.125 1.8125L2.625 1.8125ZM6.39775 5.35225C6.61742 5.57192 6.61742 5.92808 6.39775 6.14775L5.108 7.4375L13.3125 7.4375C13.6232 7.4375 13.875 7.68934 13.875 8C13.875 8.31066 13.6232 8.5625 13.3125 8.5625L5.108 8.5625L6.39775 9.85225C6.61742 10.0719 6.61742 10.4281 6.39775 10.6477C6.17808 10.8674 5.82192 10.8674 5.60225 10.6477L3.35225 8.39775C3.13258 8.17808 3.13258 7.82192 3.35225 7.60225L5.60225 5.35225C5.82192 5.13258 6.17808 5.13258 6.39775 5.35225Z" fill="#F1F5F9"/>
</svg>
