<svg width="16" height="16" viewBox="0 0 16 16" fill="none" xmlns="http://www.w3.org/2000/svg">
<path fill-rule="evenodd" clip-rule="evenodd" d="M4.625 2.9375C4.625 1.69486 5.63236 0.6875 6.875 0.6875H9.125C10.3676 0.6875 11.375 1.69486 11.375 2.9375V3.09123C12.0743 3.15525 12.768 3.23897 13.4555 3.34184C14.5461 3.50501 15.3125 4.45372 15.3125 5.52927V7.80417C15.3125 8.71253 14.7623 9.56844 13.8603 9.86831C12.0174 10.481 10.0469 10.8125 8.00003 10.8125C5.95315 10.8125 3.98257 10.481 2.1397 9.86829C1.23773 9.56842 0.6875 8.71251 0.6875 7.80415V5.52927C0.6875 4.45372 1.45393 3.50501 2.54447 3.34184C3.23195 3.23897 3.92565 3.15525 4.625 3.09123V2.9375ZM10.25 2.9375V3.00562C9.50574 2.96042 8.75552 2.9375 8.00001 2.9375C7.24449 2.9375 6.49426 2.96042 5.75 3.00562V2.9375C5.75 2.31618 6.25368 1.8125 6.875 1.8125H9.125C9.74632 1.8125 10.25 2.31618 10.25 2.9375ZM8 9.125C8.31066 9.125 8.5625 8.87316 8.5625 8.5625C8.5625 8.25184 8.31066 8 8 8C7.68934 8 7.4375 8.25184 7.4375 8.5625C7.4375 8.87316 7.68934 9.125 8 9.125Z" fill="#FAFAFA"/>
<path d="M1.25 12.8V10.7029C1.41728 10.7947 1.59573 10.873 1.78478 10.9358C3.74065 11.5861 5.83101 11.9375 8.00003 11.9375C10.169 11.9375 12.2594 11.5861 14.2152 10.9359C14.4043 10.873 14.5827 10.7947 14.75 10.703V12.8C14.75 13.8889 13.9646 14.8456 12.8576 14.9926C11.2682 15.2036 9.64665 15.3125 8 15.3125C6.35335 15.3125 4.73185 15.2036 3.14235 14.9926C2.03543 14.8456 1.25 13.8889 1.25 12.8Z" fill="#FAFAFA"/>
</svg>
