<svg width="14" height="14" viewBox="0 0 14 14" fill="none" xmlns="http://www.w3.org/2000/svg">
<path fill-rule="evenodd" clip-rule="evenodd" d="M0.25 2.5C0.25 1.25736 1.25736 0.25 2.5 0.25H4.1875C5.43014 0.25 6.4375 1.25736 6.4375 2.5V4.1875C6.4375 5.43014 5.43014 6.4375 4.1875 6.4375H2.5C1.25736 6.4375 0.25 5.43014 0.25 4.1875V2.5ZM7.5625 2.5C7.5625 1.25736 8.56986 0.25 9.8125 0.25H11.5C12.7426 0.25 13.75 1.25736 13.75 2.5V4.1875C13.75 5.43014 12.7426 6.4375 11.5 6.4375H9.8125C8.56986 6.4375 7.5625 5.43014 7.5625 4.1875V2.5ZM0.25 9.8125C0.25 8.56986 1.25736 7.5625 2.5 7.5625H4.1875C5.43014 7.5625 6.4375 8.56986 6.4375 9.8125V11.5C6.4375 12.7426 5.43014 13.75 4.1875 13.75H2.5C1.25736 13.75 0.25 12.7426 0.25 11.5V9.8125ZM7.5625 9.8125C7.5625 8.56986 8.56986 7.5625 9.8125 7.5625H11.5C12.7426 7.5625 13.75 8.56986 13.75 9.8125V11.5C13.75 12.7426 12.7426 13.75 11.5 13.75H9.8125C8.56986 13.75 7.5625 12.7426 7.5625 11.5V9.8125Z" fill="#FAFAFA"/>
</svg>
